<svg xmlns="http://www.w3.org/2000/svg" viewBox="0 0 250 250" width="250" height="250" role="img" aria-label="Particle Clicker">
  <rect width="250" height="250" fill="#0d1117"/>
  <g fill="none" stroke="#4b9fd5" opacity=".5">
    <circle cx="125" cy="125" r="88" stroke-width="1.5"/>
    <circle cx="125" cy="125" r="62" stroke-width="1.5"/>
  </g>
  <g stroke="#8ad7ff" stroke-width="2.5" stroke-linecap="round" fill="none">
    <path d="M125 125 C150 100 186 96 208 74"/>
    <path d="M125 125 C150 150 186 154 208 176"/>
    <path d="M125 125 C100 100 64 96 42 74"/>
    <path d="M125 125 C100 150 64 154 42 176"/>
    <path d="M125 125 C128 92 120 62 125 34"/>
  </g>
  <g fill="#ffd45e">
    <circle cx="208" cy="74" r="6"/><circle cx="208" cy="176" r="6"/>
    <circle cx="42" cy="74" r="6"/><circle cx="42" cy="176" r="6"/><circle cx="125" cy="34" r="6"/>
  </g>
  <circle cx="125" cy="125" r="17" fill="#ff7a59"/>
  <circle cx="125" cy="125" r="30" fill="#ff7a59" opacity=".22"/>
</svg>
